<?xml version="1.0" encoding="UTF-8"?>
<svg id="Registro_estado-2" data-name="Registro_estado" xmlns="http://www.w3.org/2000/svg" viewBox="0 0 300 83">
  <defs>
    <style>
      .cls-1 {
        fill: #709dc1;
      }
    </style>
  </defs>
  <path class="cls-1" d="M22.64,52.37c32.54.22,65.07.29,97.61.2,32.32-.09,64.64-.34,96.96-.75,18.15-.23,36.29-.51,54.43-.84,2.72-.05,5.49-1.14,7.42-3.08,1.82-1.82,3.19-4.81,3.08-7.42-.25-5.6-4.62-10.61-10.5-10.5-32.38.59-64.76,1.02-97.14,1.29s-64.73.38-97.09.34c-18.26-.03-36.51-.1-54.77-.23-2.68-.02-5.53,1.18-7.42,3.08s-3.19,4.81-3.08,7.42c.26,5.72,4.61,10.46,10.5,10.5h0Z"/>
</svg>