<?xml version="1.0" encoding="UTF-8"?>
<svg id="Registro_estado-2" data-name="Registro_estado" xmlns="http://www.w3.org/2000/svg" viewBox="0 0 113 56">
  <defs>
    <style>
      .cls-1 {
        fill: #85a6c1;
      }
    </style>
  </defs>
  <path class="cls-1" d="M28.29,35.11c7.91-.4,15.83-.45,23.74-.12,3.91.16,7.82.41,11.73.75,1.95.17,3.9.36,5.85.58.97.11,1.95.22,2.92.34.49.06.97.12,1.46.18.16.02,1.62.21.99.13,2.32.31,4.95-.56,5.54-3.14.48-2.11-.65-5.2-3.14-5.54-16.27-2.2-32.66-3-49.07-2.17-2.35.12-4.61,1.98-4.5,4.5.1,2.34,1.98,4.63,4.5,4.5h0Z"/>
</svg>