<?xml version="1.0" encoding="utf-8"?>
<!-- Generator: Adobe Illustrator 27.3.1, SVG Export Plug-In . SVG Version: 6.00 Build 0)  -->
<svg version="1.1" id="Registro_estado-2" xmlns="http://www.w3.org/2000/svg" xmlns:xlink="http://www.w3.org/1999/xlink" x="0px"
	 y="0px" viewBox="0 0 270.52 22.62" style="enable-background:new 0 0 270.52 22.62;" xml:space="preserve">
<style type="text/css">
	.st0{fill:#709DC1;}
</style>
<path class="st0" d="M11.02,22.54c32.54,0.22,65.07,0.29,97.61,0.2c32.32-0.09,64.64-0.34,96.96-0.75
	c18.15-0.23,36.29-0.51,54.43-0.84c2.72-0.05,5.49-1.14,7.42-3.08c1.82-1.82,3.19-4.81,3.08-7.42c-0.25-5.6-4.62-10.61-10.5-10.5
	c-32.38,0.59-64.76,1.02-97.14,1.29S98.15,1.82,65.79,1.78c-18.26-0.03-36.51-0.1-54.77-0.23C8.34,1.53,5.49,2.73,3.6,4.63
	s-3.19,4.81-3.08,7.42c0.26,5.72,4.61,10.46,10.5,10.5l0,0L11.02,22.54z"/>
</svg>
