<?xml version="1.0" encoding="UTF-8"?>
<svg id="Layer_11" xmlns="http://www.w3.org/2000/svg" viewBox="0 0 329 338.5">
  <defs>
    <style>
      .cls-1 {
        fill: #fff;
      }

      .cls-2 {
        fill: #231f20;
      }

      .cls-3 {
        fill: #76c1f4;
      }

      .cls-4 {
        fill: #9fd9db;
      }

      .cls-5 {
        fill: #70afed;
      }
    </style>
  </defs>
  <ellipse class="cls-5" cx="286.2" cy="217.25" rx="28.43" ry="42.63" transform="translate(-72.11 190.35) rotate(-32.91)"/>
  <ellipse class="cls-5" cx="202.19" cy="270.29" rx="28.43" ry="42.63"/>
  <ellipse class="cls-5" cx="45.05" cy="217.74" rx="42.63" ry="28.43" transform="translate(-162.23 137.27) rotate(-57.09)"/>
  <ellipse class="cls-5" cx="129.06" cy="270.78" rx="28.43" ry="42.63"/>
  <circle class="cls-3" cx="165.63" cy="157.06" r="137.93"/>
  <path class="cls-1" d="M206.41,89.35c-9.6,0-18.64,2.58-26.61,7.14-3.95,1.73-8.48,2.73-13.3,2.73s-9.27-.97-13.2-2.67c-7.99-4.59-17.08-7.2-26.71-7.2-32.05,0-58.04,28.68-58.04,64.07,0,25.77,13.79,47.98,33.67,58.14,16.53,9.98,38.69,16.1,63.07,16.1.41,0,.81-.02,1.21-.02.41,0,.81.02,1.21.02,24.38,0,46.54-6.12,63.07-16.1,19.87-10.17,33.67-32.37,33.67-58.14,0-35.38-25.98-64.07-58.04-64.07Z"/>
  <circle class="cls-4" cx="219.47" cy="147.47" r="24.52"/>
  <circle class="cls-2" cx="219.47" cy="147.47" r="21.59"/>
  <ellipse class="cls-1" cx="224.91" cy="139.51" rx="7.24" ry="9.05" transform="translate(-22.96 232.27) rotate(-52.33)"/>
  <circle class="cls-4" cx="111.74" cy="147.47" r="24.52"/>
  <circle class="cls-2" cx="111.74" cy="147.47" r="21.59"/>
  <ellipse class="cls-1" cx="117.19" cy="139.51" rx="7.24" ry="9.05" transform="translate(-64.85 147) rotate(-52.33)"/>
  <ellipse class="cls-2" cx="166.27" cy="160.7" rx="12.5" ry="9.5"/>
</svg>