<?xml version="1.0" encoding="UTF-8"?>
<svg id="Layer_11" xmlns="http://www.w3.org/2000/svg" viewBox="0 0 329 338.5">
  <defs>
    <style>
      .cls-1 {
        fill: #fff;
      }

      .cls-2 {
        fill: #231f20;
      }

      .cls-3 {
        fill: #9fd9db;
      }

      .cls-4 {
        fill: #8fef78;
      }

      .cls-5 {
        fill: #70ed7e;
      }
    </style>
  </defs>
  <ellipse class="cls-5" cx="285.74" cy="216.94" rx="28.43" ry="42.63" transform="translate(-72.01 190.05) rotate(-32.91)"/>
  <ellipse class="cls-5" cx="201.73" cy="269.98" rx="28.43" ry="42.63"/>
  <ellipse class="cls-5" cx="44.6" cy="217.43" rx="42.63" ry="28.43" transform="translate(-162.18 136.74) rotate(-57.09)"/>
  <ellipse class="cls-5" cx="128.61" cy="270.47" rx="28.43" ry="42.63"/>
  <circle class="cls-4" cx="165.17" cy="156.76" r="137.93"/>
  <path class="cls-1" d="M205.95,89.04c-9.6,0-18.64,2.58-26.61,7.14-3.95,1.73-8.48,2.73-13.3,2.73s-9.27-.97-13.2-2.67c-7.99-4.59-17.08-7.2-26.71-7.2-32.05,0-58.04,28.68-58.04,64.07,0,25.77,13.79,47.98,33.67,58.14,16.53,9.98,38.69,16.1,63.07,16.1.41,0,.81-.02,1.21-.02.41,0,.81.02,1.21.02,24.38,0,46.54-6.12,63.07-16.1,19.87-10.17,33.67-32.37,33.67-58.14,0-35.38-25.98-64.07-58.04-64.07Z"/>
  <circle class="cls-3" cx="219.01" cy="147.16" r="24.52"/>
  <circle class="cls-2" cx="219.01" cy="147.16" r="21.59"/>
  <ellipse class="cls-1" cx="224.45" cy="139.2" rx="7.24" ry="9.05" transform="translate(-22.9 231.79) rotate(-52.33)"/>
  <circle class="cls-3" cx="111.29" cy="147.16" r="24.52"/>
  <circle class="cls-2" cx="111.29" cy="147.16" r="21.59"/>
  <ellipse class="cls-1" cx="116.73" cy="139.2" rx="7.24" ry="9.05" transform="translate(-64.79 146.52) rotate(-52.33)"/>
  <ellipse class="cls-2" cx="165.81" cy="160.39" rx="12.5" ry="9.5"/>
</svg>