<?xml version="1.0" encoding="UTF-8"?>
<svg id="Layer_11" xmlns="http://www.w3.org/2000/svg" viewBox="0 0 329 338.5">
  <defs>
    <style>
      .cls-1 {
        fill: #fff;
      }

      .cls-2 {
        fill: #e472e8;
      }

      .cls-3 {
        fill: #231f20;
      }

      .cls-4 {
        fill: #9fd9db;
      }

      .cls-5 {
        fill: #ef78de;
      }
    </style>
  </defs>
  <ellipse class="cls-2" cx="286.34" cy="215.38" rx="28.43" ry="42.63" transform="translate(-71.07 190.13) rotate(-32.91)"/>
  <ellipse class="cls-2" cx="202.33" cy="268.42" rx="28.43" ry="42.63"/>
  <ellipse class="cls-2" cx="45.19" cy="215.87" rx="42.63" ry="28.43" transform="translate(-160.59 136.53) rotate(-57.09)"/>
  <ellipse class="cls-2" cx="129.2" cy="268.91" rx="28.43" ry="42.63"/>
  <circle class="cls-5" cx="165.77" cy="155.19" r="137.93"/>
  <path class="cls-1" d="M206.55,87.48c-9.6,0-18.64,2.58-26.61,7.14-3.95,1.73-8.48,2.73-13.3,2.73s-9.27-.97-13.2-2.67c-7.99-4.59-17.08-7.2-26.71-7.2-32.05,0-58.04,28.68-58.04,64.07,0,25.77,13.79,47.98,33.67,58.14,16.53,9.98,38.69,16.1,63.07,16.1.41,0,.81-.02,1.21-.02.41,0,.81.02,1.21.02,24.38,0,46.54-6.12,63.07-16.1,19.87-10.17,33.67-32.37,33.67-58.14,0-35.38-25.98-64.07-58.04-64.07Z"/>
  <circle class="cls-4" cx="219.61" cy="145.6" r="24.52"/>
  <circle class="cls-3" cx="219.61" cy="145.6" r="21.59"/>
  <ellipse class="cls-1" cx="225.05" cy="137.63" rx="7.24" ry="9.05" transform="translate(-21.43 231.65) rotate(-52.33)"/>
  <circle class="cls-4" cx="111.88" cy="145.6" r="24.52"/>
  <circle class="cls-3" cx="111.88" cy="145.6" r="21.59"/>
  <ellipse class="cls-1" cx="117.32" cy="137.63" rx="7.24" ry="9.05" transform="translate(-63.32 146.38) rotate(-52.33)"/>
  <ellipse class="cls-3" cx="166.41" cy="158.83" rx="12.5" ry="9.5"/>
</svg>