<?xml version="1.0" encoding="UTF-8"?>
<svg id="Layer_11" xmlns="http://www.w3.org/2000/svg" viewBox="0 0 329 338.5">
  <defs>
    <style>
      .cls-1 {
        fill: #fff;
      }

      .cls-2 {
        fill: #231f20;
      }

      .cls-3 {
        fill: #ea7171;
      }

      .cls-4 {
        fill: #9fd9db;
      }

      .cls-5 {
        fill: #f27777;
      }
    </style>
  </defs>
  <ellipse class="cls-3" cx="284.87" cy="217.57" rx="28.43" ry="42.63" transform="translate(-72.5 189.68) rotate(-32.91)"/>
  <ellipse class="cls-3" cx="200.86" cy="270.61" rx="28.43" ry="42.63"/>
  <ellipse class="cls-3" cx="43.72" cy="218.07" rx="42.63" ry="28.43" transform="translate(-163.11 136.29) rotate(-57.09)"/>
  <ellipse class="cls-3" cx="127.73" cy="271.1" rx="28.43" ry="42.63"/>
  <circle class="cls-5" cx="164.29" cy="157.39" r="137.93"/>
  <path class="cls-1" d="M205.07,89.67c-9.6,0-18.64,2.58-26.61,7.14-3.95,1.73-8.48,2.73-13.3,2.73s-9.27-.97-13.2-2.67c-7.99-4.59-17.08-7.2-26.71-7.2-32.05,0-58.04,28.68-58.04,64.07,0,25.77,13.79,47.98,33.67,58.14,16.53,9.98,38.69,16.1,63.07,16.1.41,0,.81-.02,1.21-.02.41,0,.81.02,1.21.02,24.38,0,46.54-6.12,63.07-16.1,19.87-10.17,33.67-32.37,33.67-58.14,0-35.38-25.98-64.07-58.04-64.07Z"/>
  <circle class="cls-4" cx="218.13" cy="147.79" r="24.52"/>
  <circle class="cls-2" cx="218.13" cy="147.79" r="21.59"/>
  <ellipse class="cls-1" cx="223.58" cy="139.83" rx="7.24" ry="9.05" transform="translate(-23.74 231.34) rotate(-52.33)"/>
  <circle class="cls-4" cx="110.41" cy="147.79" r="24.52"/>
  <circle class="cls-2" cx="110.41" cy="147.79" r="21.59"/>
  <ellipse class="cls-1" cx="115.85" cy="139.83" rx="7.24" ry="9.05" transform="translate(-65.63 146.07) rotate(-52.33)"/>
  <ellipse class="cls-2" cx="164.93" cy="161.02" rx="12.5" ry="9.5"/>
</svg>