<?xml version="1.0" encoding="UTF-8"?>
<svg id="Layer_11" xmlns="http://www.w3.org/2000/svg" viewBox="0 0 329 338.5">
  <defs>
    <style>
      .cls-1 {
        fill: #fff;
      }

      .cls-2 {
        fill: #231f20;
      }

      .cls-3 {
        fill: #9f73e5;
      }

      .cls-4 {
        fill: #9fd9db;
      }

      .cls-5 {
        fill: #ac7aed;
      }
    </style>
  </defs>
  <ellipse class="cls-3" cx="285" cy="219.52" rx="28.43" ry="42.63" transform="translate(-73.53 190.06) rotate(-32.91)"/>
  <ellipse class="cls-3" cx="200.99" cy="272.56" rx="28.43" ry="42.63"/>
  <ellipse class="cls-3" cx="43.85" cy="220.01" rx="42.63" ry="28.43" transform="translate(-164.68 137.29) rotate(-57.09)"/>
  <ellipse class="cls-3" cx="127.86" cy="273.05" rx="28.43" ry="42.63"/>
  <circle class="cls-5" cx="164.43" cy="159.33" r="137.93"/>
  <path class="cls-1" d="M205.21,91.61c-9.6,0-18.64,2.58-26.61,7.14-3.95,1.73-8.48,2.73-13.3,2.73s-9.27-.97-13.2-2.67c-7.99-4.59-17.08-7.2-26.71-7.2-32.05,0-58.04,28.68-58.04,64.07,0,25.77,13.79,47.98,33.67,58.14,16.53,9.98,38.69,16.1,63.07,16.1.41,0,.81-.02,1.21-.02.41,0,.81.02,1.21.02,24.38,0,46.54-6.12,63.07-16.1,19.87-10.17,33.67-32.37,33.67-58.14,0-35.38-25.98-64.07-58.04-64.07Z"/>
  <circle class="cls-4" cx="218.27" cy="149.73" r="24.52"/>
  <circle class="cls-2" cx="218.27" cy="149.73" r="21.59"/>
  <ellipse class="cls-1" cx="223.71" cy="141.77" rx="7.24" ry="9.05" transform="translate(-25.22 232.2) rotate(-52.33)"/>
  <circle class="cls-4" cx="110.54" cy="149.73" r="24.52"/>
  <circle class="cls-2" cx="110.54" cy="149.73" r="21.59"/>
  <ellipse class="cls-1" cx="115.98" cy="141.77" rx="7.24" ry="9.05" transform="translate(-67.11 146.93) rotate(-52.33)"/>
  <path class="cls-2" d="M174.14,159.36c-1.22-.19-1.79.57-3.3,3.49-1.21,2.34-6.24,2-6.42,2.02-.17-.02-5.21.32-6.42-2.02-1.51-2.92-2.07-3.67-3.3-3.49s-3.49,1.04-1.98,4.05c1.51,3.01,3.49,4.33,6.5,4.9,2.45.46,4.49.48,5.19.48.7,0,2.75-.02,5.19-.48,3.01-.57,4.99-1.88,6.5-4.9,1.51-3.01-.75-3.86-1.98-4.05Z"/>
  <path d="M152.74,159.05c-.91,0-1.61.84-1.42,1.72,1.13,5.33,6.59,9.38,13.16,9.38s12.03-4.05,13.16-9.38c.19-.89-.51-1.72-1.42-1.72h-23.49Z"/>
</svg>