<?xml version="1.0" encoding="UTF-8"?>
<svg id="Layer_11" xmlns="http://www.w3.org/2000/svg" viewBox="0 0 329 338.5">
  <defs>
    <style>
      .cls-1 {
        fill: #fff;
      }

      .cls-2 {
        fill: #efd96f;
      }

      .cls-3 {
        fill: #f6e474;
      }

      .cls-4 {
        fill: #231f20;
      }

      .cls-5 {
        fill: #9fd9db;
      }
    </style>
  </defs>
  <ellipse class="cls-2" cx="285.64" cy="216.89" rx="28.43" ry="42.63" transform="translate(-72 189.99) rotate(-32.91)"/>
  <ellipse class="cls-2" cx="201.63" cy="269.93" rx="28.43" ry="42.63"/>
  <ellipse class="cls-2" cx="44.49" cy="217.38" rx="42.63" ry="28.43" transform="translate(-162.18 136.63) rotate(-57.09)"/>
  <ellipse class="cls-2" cx="128.5" cy="270.42" rx="28.43" ry="42.63"/>
  <circle class="cls-3" cx="165.07" cy="156.7" r="137.93"/>
  <path class="cls-1" d="M205.85,88.99c-9.6,0-18.64,2.58-26.61,7.14-3.95,1.73-8.48,2.73-13.3,2.73s-9.27-.97-13.2-2.67c-7.99-4.59-17.08-7.2-26.71-7.2-32.05,0-58.04,28.68-58.04,64.07,0,25.77,13.79,47.98,33.67,58.14,16.53,9.98,38.69,16.1,63.07,16.1.41,0,.81-.02,1.21-.02.41,0,.81.02,1.21.02,24.38,0,46.54-6.12,63.07-16.1,19.87-10.17,33.67-32.37,33.67-58.14,0-35.38-25.98-64.07-58.04-64.07Z"/>
  <circle class="cls-5" cx="218.91" cy="147.11" r="24.52"/>
  <circle class="cls-4" cx="218.91" cy="147.11" r="21.59"/>
  <ellipse class="cls-1" cx="224.35" cy="139.14" rx="7.24" ry="9.05" transform="translate(-22.89 231.69) rotate(-52.33)"/>
  <circle class="cls-5" cx="111.19" cy="147.11" r="24.52"/>
  <circle class="cls-4" cx="111.19" cy="147.11" r="21.59"/>
  <ellipse class="cls-1" cx="116.63" cy="139.14" rx="7.24" ry="9.05" transform="translate(-64.78 146.42) rotate(-52.33)"/>
  <ellipse class="cls-4" cx="165.71" cy="160.34" rx="12.5" ry="9.5"/>
</svg>