<?xml version="1.0" encoding="UTF-8"?>
<svg id="Layer_11" xmlns="http://www.w3.org/2000/svg" viewBox="0 0 329 338.5">
  <defs>
    <style>
      .cls-1 {
        fill: #fff;
      }

      .cls-2 {
        fill: #efd96f;
      }

      .cls-3 {
        fill: #f6e474;
      }

      .cls-4 {
        fill: #231f20;
      }

      .cls-5 {
        fill: #9fd9db;
      }
    </style>
  </defs>
  <ellipse class="cls-2" cx="285.87" cy="218.66" rx="28.43" ry="42.63" transform="translate(-72.93 190.39) rotate(-32.91)"/>
  <ellipse class="cls-2" cx="201.86" cy="271.7" rx="28.43" ry="42.63"/>
  <ellipse class="cls-2" cx="44.72" cy="219.15" rx="42.63" ry="28.43" transform="translate(-163.56 137.63) rotate(-57.09)"/>
  <ellipse class="cls-2" cx="128.73" cy="272.19" rx="28.43" ry="42.63"/>
  <circle class="cls-3" cx="165.29" cy="158.47" r="137.93"/>
  <path class="cls-1" d="M206.07,90.75c-9.6,0-18.64,2.58-26.61,7.14-3.95,1.73-8.48,2.73-13.3,2.73s-9.27-.97-13.2-2.67c-7.99-4.59-17.08-7.2-26.71-7.2-32.05,0-58.04,28.68-58.04,64.07,0,25.77,13.79,47.98,33.67,58.14,16.53,9.98,38.69,16.1,63.07,16.1.41,0,.81-.02,1.21-.02.41,0,.81.02,1.21.02,24.38,0,46.54-6.12,63.07-16.1,19.87-10.17,33.67-32.37,33.67-58.14,0-35.38-25.98-64.07-58.04-64.07Z"/>
  <circle class="cls-5" cx="219.13" cy="148.87" r="24.52"/>
  <circle class="cls-4" cx="219.13" cy="148.87" r="21.59"/>
  <ellipse class="cls-1" cx="224.57" cy="140.91" rx="7.24" ry="9.05" transform="translate(-24.21 232.55) rotate(-52.33)"/>
  <circle class="cls-5" cx="111.41" cy="148.87" r="24.52"/>
  <circle class="cls-4" cx="111.41" cy="148.87" r="21.59"/>
  <ellipse class="cls-1" cx="116.85" cy="140.91" rx="7.24" ry="9.05" transform="translate(-66.1 147.28) rotate(-52.33)"/>
  <path class="cls-4" d="M175,158.5c-1.22-.19-1.79.57-3.3,3.49-1.21,2.34-6.24,2-6.42,2.02-.17-.02-5.21.32-6.42-2.02-1.51-2.92-2.07-3.67-3.3-3.49-1.22.19-3.49,1.04-1.98,4.05,1.51,3.01,3.49,4.33,6.5,4.9,2.45.46,4.49.48,5.19.48.7,0,2.75-.02,5.19-.48,3.01-.57,4.99-1.88,6.5-4.9,1.51-3.01-.75-3.86-1.98-4.05Z"/>
  <ellipse class="cls-1" cx="108.75" cy="173.87" rx="31" ry="11"/>
  <ellipse class="cls-1" cx="220.75" cy="172.87" rx="31" ry="11"/>
</svg>