<svg xmlns="http://www.w3.org/2000/svg" fill="none" viewBox="0 0 48 48" id="Arrow-Back-Circle--Streamline-Ionic-Filled" height="48" width="48"><desc>Arrow Back Circle Streamline Icon: https://streamlinehq.com</desc><path fill="#000000" d="M0.48 24.0001C0.48 36.9892 11.0108 47.52 23.9999 47.52c12.9893 0 23.5201 -10.5308 23.5201 -23.5199C47.52 11.0108 36.9892 0.48 23.9999 0.48 11.0108 0.48 0.48 11.0108 0.48 24.0001Zm24.0458 -10.3308c0.1686 0.1673 0.3028 0.3662 0.3947 0.5854 0.0918 0.2193 0.1394 0.4543 0.1405 0.692 0.0008 0.2376 -0.045 0.473 -0.1351 0.6929 -0.0901 0.22 -0.2225 0.4199 -0.3899 0.5886l-5.9162 5.9626h15.1048c0.4798 0 0.9401 0.1906 1.2793 0.5299s0.5299 0.7995 0.5299 1.2793c0 0.4797 -0.1906 0.94 -0.5299 1.2793s-0.7995 0.5299 -1.2793 0.5299H18.6198l5.9162 5.9626c0.1674 0.1688 0.2997 0.3689 0.3898 0.5889 0.09 0.2202 0.1358 0.4557 0.1347 0.6935 -0.0009 0.2377 -0.049 0.4729 -0.1409 0.6921 -0.0919 0.2191 -0.2261 0.4181 -0.395 0.5856 -0.1687 0.1673 -0.369 0.2997 -0.589 0.3897 -0.22 0.0901 -0.4555 0.1358 -0.6934 0.1348 -0.2376 -0.0011 -0.4728 -0.049 -0.6921 -0.1409 -0.2191 -0.092 -0.4182 -0.2261 -0.5855 -0.395l-8.9772 -9.0461c-0.3363 -0.339 -0.525 -0.797 -0.525 -1.2744 0 -0.4775 0.1887 -0.9355 0.525 -1.2744l8.9772 -9.0461c0.1673 -0.1691 0.3665 -0.3034 0.5859 -0.3954 0.2193 -0.0921 0.4546 -0.1399 0.6926 -0.1409 0.2378 -0.001 0.4736 0.0451 0.6938 0.1353 0.2201 0.0902 0.4202 0.223 0.5889 0.3908Z" stroke-width="1"></path></svg>